<?xml version="1.0" encoding="UTF-8"?>
<!DOCTYPE svg PUBLIC "-//W3C//DTD SVG 1.1//EN" "http://www.w3.org/Graphics/SVG/1.1/DTD/svg11.dtd">
<svg xmlns="http://www.w3.org/2000/svg" version="1.1" width="180px" height="180px" viewbox="0 0 280 280" style="shape-rendering:geometricPrecision; text-rendering:geometricPrecision; image-rendering:optimizeQuality; fill-rule:evenodd; clip-rule:evenodd" xmlns:xlink="http://www.w3.org/1999/xlink">
<g><path style="opacity:0.999" fill="#0c0b0c" d="M 77.5,3.5 C 109.375,1.23001 128.875,15.5633 136,46.5C 136.498,49.8168 136.665,53.1501 136.5,56.5C 139.85,56.335 143.183,56.5017 146.5,57C 147,57.5 147.5,58 148,58.5C 148.167,60.5 148.333,62.5 148.5,64.5C 145.591,95.2564 142.091,125.923 138,156.5C 135.076,163.758 129.909,168.592 122.5,171C 110.721,172.124 98.8874,172.624 87,172.5C 74.7879,172.614 62.6212,172.114 50.5,171C 44.0568,168.223 39.2235,163.723 36,157.5C 31.8712,125.714 28.0378,93.8807 24.5,62C 24.9903,60.018 25.9903,58.3513 27.5,57C 30.8168,56.5017 34.1501,56.335 37.5,56.5C 37.5584,28.6832 50.8918,11.0165 77.5,3.5 Z M 121.5,56.5 C 98.5,56.5 75.5,56.5 52.5,56.5C 52.5,53.1667 52.5,49.8333 52.5,46.5C 60.5196,22.1561 76.8529,13.6561 101.5,21C 115.539,28.5682 122.205,40.4016 121.5,56.5 Z"/></g>
<g><path style="opacity:1" fill="#c44ef2" d="M 71.5,88.5 C 67.5644,90.7657 64.2311,93.7657 61.5,97.5C 60.1266,97.6567 58.7932,97.49 57.5,97C 54.3333,93.8333 51.1667,90.6667 48,87.5C 47.5417,82.6248 49.7083,80.4582 54.5,81C 56.64,81.9733 58.3067,83.4733 59.5,85.5C 63.3181,82.1824 66.9848,78.6824 70.5,75C 74.2295,74.2169 76.5628,75.7169 77.5,79.5C 75.4836,82.5113 73.4836,85.5113 71.5,88.5 Z"/></g>
<g><path style="opacity:1" fill="#c44ef2" d="M 88.5,81.5 C 100.171,81.3335 111.838,81.5001 123.5,82C 126.167,84.6667 126.167,87.3333 123.5,90C 111.833,90.6667 100.167,90.6667 88.5,90C 85.8852,87.0931 85.8852,84.2598 88.5,81.5 Z"/></g>
<g><path style="opacity:1" fill="#c64df6" d="M 71.5,88.5 C 68.7689,92.2343 65.4356,95.2343 61.5,97.5C 64.2311,93.7657 67.5644,90.7657 71.5,88.5 Z"/></g>
<g><path style="opacity:1" fill="#c34ff0" d="M 70.5,102.5 C 76.7331,102.889 78.5664,105.889 76,111.5C 71.8333,115.667 67.6667,119.833 63.5,124C 61.6354,125.301 59.6354,125.635 57.5,125C 54.6667,122.167 51.8333,119.333 49,116.5C 47.1747,111.014 49.0081,108.514 54.5,109C 56.5852,110.041 58.2519,111.541 59.5,113.5C 63.521,110.146 67.1877,106.479 70.5,102.5 Z"/></g>
<g><path style="opacity:1" fill="#c14eee" d="M 88.5,109.5 C 100.171,109.333 111.838,109.5 123.5,110C 126.311,113.294 125.978,116.294 122.5,119C 111.833,119.667 101.167,119.667 90.5,119C 85.9628,116.682 85.2962,113.515 88.5,109.5 Z"/></g>
<g><path style="opacity:1" fill="#c54ff3" d="M 69.5,131.5 C 76.4285,130.581 78.5952,133.248 76,139.5C 71.8333,143.667 67.6667,147.833 63.5,152C 61.6354,153.301 59.6354,153.635 57.5,153C 54.6667,150.167 51.8333,147.333 49,144.5C 47.6903,140.453 49.0236,137.786 53,136.5C 55.2983,137.961 57.4649,139.628 59.5,141.5C 63.1877,138.479 66.5211,135.146 69.5,131.5 Z"/></g>
<g><path style="opacity:1" fill="#c351f0" d="M 89.5,137.5 C 100.505,137.333 111.505,137.5 122.5,138C 126.424,140.818 126.424,143.818 122.5,147C 111.833,147.667 101.167,147.667 90.5,147C 85.7437,144.249 85.4104,141.082 89.5,137.5 Z"/></g>
</svg>
