<?xml version="1.0" encoding="UTF-8"?>
<!DOCTYPE svg PUBLIC "-//W3C//DTD SVG 1.1//EN" "http://www.w3.org/Graphics/SVG/1.1/DTD/svg11.dtd">
<svg xmlns="http://www.w3.org/2000/svg" version="1.1" width="180px" height="180px" style="shape-rendering:geometricPrecision; text-rendering:geometricPrecision; image-rendering:optimizeQuality; fill-rule:evenodd; clip-rule:evenodd" xmlns:xlink="http://www.w3.org/1999/xlink">
<g><path style="opacity:1" fill="#fd9d07" d="M 80.5,3.5 C 112.375,1.23001 131.875,15.5633 139,46.5C 139.498,49.8168 139.665,53.1501 139.5,56.5C 142.85,56.335 146.183,56.5017 149.5,57C 150,57.5 150.5,58 151,58.5C 151.167,60.5 151.333,62.5 151.5,64.5C 148.591,95.2564 145.091,125.923 141,156.5C 138.076,163.758 132.909,168.592 125.5,171C 113.721,172.124 101.887,172.624 90,172.5C 77.7879,172.614 65.6212,172.114 53.5,171C 47.0568,168.223 42.2235,163.723 39,157.5C 34.8712,125.714 31.0378,93.8807 27.5,62C 27.9903,60.018 28.9903,58.3513 30.5,57C 33.8168,56.5017 37.1501,56.335 40.5,56.5C 40.5584,28.6832 53.8918,11.0165 80.5,3.5 Z M 88.5,17.5 C 112.283,19.6164 124.283,32.6164 124.5,56.5C 101.5,56.5 78.5,56.5 55.5,56.5C 55.386,33.9563 66.386,20.9563 88.5,17.5 Z"/></g>
<g><path style="opacity:1" fill="#23142c" d="M 72.5,75.5 C 78.6739,74.1729 80.8406,76.5062 79,82.5C 74.5,87 70,91.5 65.5,96C 63.0288,96.7063 60.6954,96.373 58.5,95C 57,92.8333 55.1667,91 53,89.5C 50.3684,85.3244 51.3684,82.6578 56,81.5C 58.5239,82.1782 60.6905,83.5115 62.5,85.5C 66.1877,82.479 69.5211,79.1456 72.5,75.5 Z"/></g>
<g><path style="opacity:1" fill="#1e1029" d="M 92.5,81.5 C 103.838,81.3335 115.172,81.5001 126.5,82C 129.167,84.6667 129.167,87.3333 126.5,90C 115.167,90.6667 103.833,90.6667 92.5,90C 89.8987,87.1705 89.8987,84.3371 92.5,81.5 Z"/></g>
<g><path style="opacity:1" fill="#22142b" d="M 73.5,103.5 C 78.5751,103.18 80.4085,105.514 79,110.5C 74.5,115 70,119.5 65.5,124C 63.5,124.667 61.5,124.667 59.5,124C 57.3333,121.833 55.1667,119.667 53,117.5C 50.3684,113.324 51.3684,110.658 56,109.5C 58.5239,110.178 60.6905,111.512 62.5,113.5C 66.2125,110.116 69.8792,106.783 73.5,103.5 Z"/></g>
<g><path style="opacity:1" fill="#1f122a" d="M 92.5,109.5 C 103.505,109.333 114.505,109.5 125.5,110C 128.917,112.321 129.25,114.988 126.5,118C 115.167,118.667 103.833,118.667 92.5,118C 89.8987,115.17 89.8987,112.337 92.5,109.5 Z"/></g>
<g><path style="opacity:1" fill="#22132b" d="M 73.5,131.5 C 78.4943,131.329 80.3276,133.662 79,138.5C 74.1667,143.333 69.3333,148.167 64.5,153C 62.7111,153.52 61.0444,153.187 59.5,152C 57,149.5 54.5,147 52,144.5C 50.8333,139 53,136.833 58.5,138C 59.6853,139.353 61.0186,140.52 62.5,141.5C 66.4291,138.383 70.0958,135.05 73.5,131.5 Z"/></g>
<g><path style="opacity:1" fill="#23142b" d="M 92.5,137.5 C 103.505,137.333 114.505,137.5 125.5,138C 128.917,140.321 129.25,142.988 126.5,146C 114.833,146.667 103.167,146.667 91.5,146C 90.0406,142.929 90.3739,140.096 92.5,137.5 Z"/></g>
</svg>
